<svg width="1440" height="1100" viewBox="0 0 1440 1100" fill="none" xmlns="http://www.w3.org/2000/svg">
  <rect width="1440" height="1100" fill="#F3EBDD"/>
  <rect x="24" y="20" width="1392" height="1060" rx="32" fill="#F8F3EA" stroke="#D7C6AE"/>

  <rect x="56" y="40" width="1328" height="82" rx="28" fill="#FCFAF5" stroke="#DDCFBC"/>
  <text x="86" y="72" fill="#6F6250" font-family="Arial, sans-serif" font-size="14" font-weight="700" letter-spacing="2">LOCAL GOVERNMENT EXPLORER</text>
  <rect x="300" y="58" width="700" height="46" rx="23" fill="#F4EEE5" stroke="#DCCBB4"/>
  <text x="328" y="87" fill="#7E715F" font-family="Arial, sans-serif" font-size="20">Search projects, streets, topics, speakers...</text>
  <rect x="1022" y="58" width="150" height="46" rx="23" fill="#EDE4D5"/>
  <text x="1068" y="87" fill="#3D352B" font-family="Arial, sans-serif" font-size="18" font-weight="700">Newest</text>
  <circle cx="1206" cy="81" r="22" fill="#1F1B16"/>
  <text x="1198" y="88" fill="#F8F3EA" font-family="Arial, sans-serif" font-size="20">+</text>
  <circle cx="1268" cy="81" r="22" fill="#E7D6B6"/>
  <text x="1258" y="88" fill="#3D352B" font-family="Arial, sans-serif" font-size="18">i</text>

  <text x="64" y="172" fill="#6F6250" font-family="Arial, sans-serif" font-size="13" font-weight="700" letter-spacing="2">FILTERS</text>

  <rect x="64" y="188" width="70" height="38" rx="19" fill="#201A13"/>
  <text x="89" y="212" fill="#FFF9F0" font-family="Arial, sans-serif" font-size="18" font-weight="700">All</text>
  <rect x="144" y="188" width="92" height="38" rx="19" fill="#E8DED0"/>
  <text x="171" y="212" fill="#4A4033" font-family="Arial, sans-serif" font-size="17">Active</text>
  <rect x="246" y="188" width="122" height="38" rx="19" fill="#E8DED0"/>
  <text x="273" y="212" fill="#4A4033" font-family="Arial, sans-serif" font-size="17">Has comments</text>
  <rect x="378" y="188" width="86" height="38" rx="19" fill="#E8DED0"/>
  <text x="408" y="212" fill="#4A4033" font-family="Arial, sans-serif" font-size="17">Money</text>
  <rect x="474" y="188" width="98" height="38" rx="19" fill="#E8DED0"/>
  <text x="502" y="212" fill="#4A4033" font-family="Arial, sans-serif" font-size="17">Split votes</text>
  <rect x="582" y="188" width="138" height="38" rx="19" fill="#E8DED0"/>
  <text x="612" y="212" fill="#4A4033" font-family="Arial, sans-serif" font-size="17">Long discussions</text>
  <rect x="730" y="188" width="86" height="38" rx="19" fill="#E8DED0"/>
  <text x="760" y="212" fill="#4A4033" font-family="Arial, sans-serif" font-size="17">Votes</text>
  <rect x="826" y="188" width="126" height="38" rx="19" fill="#E8DED0"/>
  <text x="855" y="212" fill="#4A4033" font-family="Arial, sans-serif" font-size="17">Open questions</text>

  <text x="64" y="276" fill="#6F6250" font-family="Arial, sans-serif" font-size="13" font-weight="700" letter-spacing="2">TOPICS</text>
  <rect x="64" y="292" width="102" height="38" rx="19" fill="#D9E7F8"/>
  <text x="89" y="316" fill="#234E7E" font-family="Arial, sans-serif" font-size="17" font-weight="700">Housing</text>
  <rect x="176" y="292" width="124" height="38" rx="19" fill="#E8DED0"/>
  <text x="203" y="316" fill="#4A4033" font-family="Arial, sans-serif" font-size="17">Infrastructure</text>
  <rect x="310" y="292" width="112" height="38" rx="19" fill="#E8DED0"/>
  <text x="338" y="316" fill="#4A4033" font-family="Arial, sans-serif" font-size="17">Public safety</text>
  <rect x="432" y="292" width="90" height="38" rx="19" fill="#E8DED0"/>
  <text x="460" y="316" fill="#4A4033" font-family="Arial, sans-serif" font-size="17">Finance</text>
  <rect x="532" y="292" width="122" height="38" rx="19" fill="#E8DED0"/>
  <text x="562" y="316" fill="#4A4033" font-family="Arial, sans-serif" font-size="17">Environment</text>
  <rect x="664" y="292" width="100" height="38" rx="19" fill="#E8DED0"/>
  <text x="694" y="316" fill="#4A4033" font-family="Arial, sans-serif" font-size="17">Downtown</text>

  <text x="64" y="392" fill="#3D352B" font-family="Georgia, serif" font-size="42" font-weight="700">What’s happening in Champaign</text>
  <text x="64" y="430" fill="#766A59" font-family="Arial, sans-serif" font-size="22">A browseable feed of issues, decisions, and unresolved questions.</text>

  <rect x="64" y="470" width="408" height="258" rx="24" fill="#FFFBF5" stroke="#DDCFBC"/>
  <rect x="84" y="490" width="368" height="130" rx="18" fill="#DCE8F4"/>
  <text x="102" y="536" fill="#234E7E" font-family="Arial, sans-serif" font-size="28">🏗️</text>
  <rect x="122" y="504" width="96" height="28" rx="14" fill="#FFF9F0"/>
  <text x="146" y="523" fill="#234E7E" font-family="Arial, sans-serif" font-size="14" font-weight="700">APPROVED</text>
  <rect x="228" y="504" width="82" height="28" rx="14" fill="#FFF9F0"/>
  <text x="250" y="523" fill="#5F5343" font-family="Arial, sans-serif" font-size="14">$2.4M</text>
  <rect x="320" y="504" width="108" height="28" rx="14" fill="#FFF9F0"/>
  <text x="344" y="523" fill="#5F5343" font-family="Arial, sans-serif" font-size="14">No comments</text>
  <text x="84" y="654" fill="#221B13" font-family="Georgia, serif" font-size="28" font-weight="700">Concrete street repairs approved for 2026</text>
  <text x="84" y="692" fill="#5E5244" font-family="Arial, sans-serif" font-size="18">Council approved a construction contract and state funding on Mar 24.</text>
  <text x="84" y="718" fill="#877764" font-family="Arial, sans-serif" font-size="16">Why it matters: this shapes road quality, traffic impacts, and spending this year.</text>

  <rect x="492" y="470" width="408" height="258" rx="24" fill="#FFFBF5" stroke="#DDCFBC"/>
  <rect x="512" y="490" width="368" height="130" rx="18" fill="#E6E0F5"/>
  <text x="530" y="536" fill="#5A4AA0" font-family="Arial, sans-serif" font-size="28">🏠</text>
  <rect x="550" y="504" width="80" height="28" rx="14" fill="#FFF9F0"/>
  <text x="573" y="523" fill="#2D6F55" font-family="Arial, sans-serif" font-size="14" font-weight="700">ACTIVE</text>
  <rect x="640" y="504" width="122" height="28" rx="14" fill="#FFF9F0"/>
  <text x="664" y="523" fill="#5F5343" font-family="Arial, sans-serif" font-size="14">2 open questions</text>
  <rect x="772" y="504" width="86" height="28" rx="14" fill="#FFF9F0"/>
  <text x="798" y="523" fill="#5F5343" font-family="Arial, sans-serif" font-size="14">1 comment</text>
  <text x="512" y="654" fill="#221B13" font-family="Georgia, serif" font-size="28" font-weight="700">Pressure grows for citywide housing reform</text>
  <text x="512" y="692" fill="#5E5244" font-family="Arial, sans-serif" font-size="18">Residents pushed council to move past studies and adopt concrete housing policy.</text>
  <text x="512" y="718" fill="#877764" font-family="Arial, sans-serif" font-size="16">Quote: “Stop relying on studies and implement real policy changes.”</text>

  <rect x="920" y="470" width="408" height="258" rx="24" fill="#FFFBF5" stroke="#DDCFBC"/>
  <rect x="940" y="490" width="368" height="130" rx="18" fill="#F1E2D4"/>
  <text x="958" y="536" fill="#A45B2B" font-family="Arial, sans-serif" font-size="28">🏨</text>
  <rect x="978" y="504" width="96" height="28" rx="14" fill="#FFF9F0"/>
  <text x="1003" y="523" fill="#234E7E" font-family="Arial, sans-serif" font-size="14" font-weight="700">FUNDED</text>
  <rect x="1084" y="504" width="82" height="28" rx="14" fill="#FFF9F0"/>
  <text x="1106" y="523" fill="#5F5343" font-family="Arial, sans-serif" font-size="14">$7M</text>
  <rect x="1176" y="504" width="92" height="28" rx="14" fill="#FFF9F0"/>
  <text x="1202" y="523" fill="#5F5343" font-family="Arial, sans-serif" font-size="14">7–0 vote</text>
  <text x="940" y="654" fill="#221B13" font-family="Georgia, serif" font-size="28" font-weight="700">Downtown hotel deal moves forward</text>
  <text x="940" y="692" fill="#5E5244" font-family="Arial, sans-serif" font-size="18">Council approved reimbursements for a Graduate Hotel development agreement.</text>
  <text x="940" y="718" fill="#877764" font-family="Arial, sans-serif" font-size="16">Why it matters: the project may change downtown activity, jobs, and city incentives.</text>

  <rect x="64" y="750" width="408" height="258" rx="24" fill="#FFFBF5" stroke="#DDCFBC"/>
  <rect x="84" y="770" width="368" height="130" rx="18" fill="#E5F0E8"/>
  <text x="102" y="816" fill="#2D6F55" font-family="Arial, sans-serif" font-size="28">🌳</text>
  <rect x="122" y="784" width="90" height="28" rx="14" fill="#FFF9F0"/>
  <text x="147" y="803" fill="#2D6F55" font-family="Arial, sans-serif" font-size="14" font-weight="700">DISCUSSION</text>
  <rect x="222" y="784" width="130" height="28" rx="14" fill="#FFF9F0"/>
  <text x="248" y="803" fill="#5F5343" font-family="Arial, sans-serif" font-size="14">Long discussion</text>
  <text x="84" y="934" fill="#221B13" font-family="Georgia, serif" font-size="28" font-weight="700">Prosperity Gardens funding faces uncertainty</text>
  <text x="84" y="972" fill="#5E5244" font-family="Arial, sans-serif" font-size="18">Officials and residents debated shelter funding and what happens if support ends.</text>
  <text x="84" y="998" fill="#877764" font-family="Arial, sans-serif" font-size="16">Quote: “Y’all close this homeless shelter, it’s going to be a mess.”</text>

  <rect x="492" y="750" width="408" height="258" rx="24" fill="#FFFBF5" stroke="#DDCFBC"/>
  <rect x="512" y="770" width="368" height="130" rx="18" fill="#F8E3E0"/>
  <text x="530" y="816" fill="#A64740" font-family="Arial, sans-serif" font-size="28">🚨</text>
  <rect x="550" y="784" width="76" height="28" rx="14" fill="#FFF9F0"/>
  <text x="574" y="803" fill="#2D6F55" font-family="Arial, sans-serif" font-size="14" font-weight="700">ACTIVE</text>
  <rect x="636" y="784" width="114" height="28" rx="14" fill="#FFF9F0"/>
  <text x="660" y="803" fill="#5F5343" font-family="Arial, sans-serif" font-size="14">Public concern</text>
  <text x="512" y="934" fill="#221B13" font-family="Georgia, serif" font-size="28" font-weight="700">Council wrestles with gun violence response</text>
  <text x="512" y="972" fill="#5E5244" font-family="Arial, sans-serif" font-size="18">No vote yet, but council and residents raised pressure for stronger action.</text>
  <text x="512" y="998" fill="#877764" font-family="Arial, sans-serif" font-size="16">Why it matters: this is a continuing issue, not a closed decision.</text>

  <rect x="920" y="750" width="408" height="258" rx="24" fill="#FFFBF5" stroke="#DDCFBC"/>
  <rect x="940" y="770" width="368" height="130" rx="18" fill="#E8E8E8"/>
  <text x="958" y="816" fill="#4D4D4D" font-family="Arial, sans-serif" font-size="28">📍</text>
  <rect x="978" y="784" width="100" height="28" rx="14" fill="#FFF9F0"/>
  <text x="1005" y="803" fill="#A45B2B" font-family="Arial, sans-serif" font-size="14" font-weight="700">NO ACTION</text>
  <rect x="1088" y="784" width="118" height="28" rx="14" fill="#FFF9F0"/>
  <text x="1114" y="803" fill="#5F5343" font-family="Arial, sans-serif" font-size="14">Likely returns</text>
  <text x="940" y="934" fill="#221B13" font-family="Georgia, serif" font-size="28" font-weight="700">West Healey duplex raises precedent questions</text>
  <text x="940" y="972" fill="#5E5244" font-family="Arial, sans-serif" font-size="18">Supportive approval also surfaced concern about future duplex decisions.</text>
  <text x="940" y="998" fill="#877764" font-family="Arial, sans-serif" font-size="16">Open question: does this set a broader zoning precedent?</text>
</svg>
